<svg width="161" height="48" fill="none" xmlns="http://www.w3.org/2000/svg"><path d="M22.25 2c-12.15 0-22 9.85-22 22s9.85 22 22 22c10.901 0 19.95-7.928 21.696-18.333h-.158c-1.628 6.325-7.37 11-14.205 11-8.1 0-14.666-6.567-14.666-14.667S21.483 9.333 29.583 9.333c6.834 0 12.577 4.675 14.205 11h.158C42.2 9.928 33.15 2 22.25 2z" fill="#FFF4EB"/><path d="M.25 24c0-12.15 9.85-22 22-22C33.151 2 42.2 9.928 43.946 20.333H29.12c-1.628-6.325-7.37-11-14.204-11C6.817 9.333.25 15.9.25 24zm0 0c0 12.15 9.85 22 22 22 10.901 0 19.95-7.928 21.696-18.333H29.12c-1.628 6.325-7.37 11-14.204 11C6.817 38.667.25 32.1.25 24zm75.439-3.493c-.626-4.524-4.107-7.149-8.62-7.149-5.32 0-9.328 3.878-9.328 10.46 0 6.573 3.958 10.46 9.327 10.46 4.843 0 8.054-3.132 8.62-7.02l-3.718-.02c-.467 2.387-2.416 3.73-4.852 3.73-3.301 0-5.668-2.477-5.668-7.15 0-4.594 2.347-7.149 5.678-7.149 2.476 0 4.415 1.402 4.842 3.838h3.719zm7.614 13.801c2.396 0 3.828-1.123 4.484-2.406h.12V34h3.46V23.778c0-4.037-3.291-5.25-6.205-5.25-3.211 0-5.677 1.432-6.473 4.216l3.361.478c.358-1.044 1.372-1.94 3.132-1.94 1.67 0 2.585.856 2.585 2.357v.06c0 1.034-1.083 1.084-3.778 1.372-2.963.318-5.797 1.203-5.797 4.643 0 3.003 2.198 4.594 5.11 4.594zm.934-2.645c-1.5 0-2.575-.686-2.575-2.008 0-1.382 1.203-1.959 2.814-2.188.945-.129 2.834-.368 3.301-.745v1.8c0 1.7-1.372 3.141-3.54 3.141zm18.376-12.936H99.6v-3.659H96v3.66h-2.167v2.783H96v8.492c-.02 2.873 2.069 4.285 4.773 4.206a7.24 7.24 0 002.118-.358l-.607-2.814c-.198.05-.606.14-1.054.14-.904 0-1.63-.319-1.63-1.77V21.51h3.013v-2.784zm7.405 15.581c2.396 0 3.828-1.123 4.484-2.406h.119V34h3.461V23.778c0-4.037-3.292-5.25-6.205-5.25-3.212 0-5.677 1.432-6.473 4.216l3.361.478c.358-1.044 1.372-1.94 3.132-1.94 1.67 0 2.585.856 2.585 2.357v.06c0 1.034-1.084 1.084-3.778 1.372-2.963.318-5.797 1.203-5.797 4.643 0 3.003 2.197 4.594 5.111 4.594zm.934-2.645c-1.501 0-2.575-.686-2.575-2.008 0-1.382 1.203-1.959 2.814-2.188.945-.129 2.834-.368 3.301-.745v1.8c0 1.7-1.372 3.141-3.54 3.141zM125.3 13.636h-3.599V34h3.599V13.636zm10.364 20.662c4.474 0 7.318-3.152 7.318-7.875 0-4.733-2.844-7.895-7.318-7.895-4.475 0-7.319 3.162-7.319 7.895 0 4.723 2.844 7.875 7.319 7.875zm.02-2.883c-2.476 0-3.689-2.208-3.689-5.002 0-2.794 1.213-5.03 3.689-5.03 2.436 0 3.649 2.236 3.649 5.03s-1.213 5.002-3.649 5.002zm16.995 8.63c4.126 0 7.169-1.889 7.169-5.796V18.727h-3.55v2.526h-.199c-.546-1.104-1.69-2.725-4.385-2.725-3.529 0-6.304 2.765-6.304 7.786 0 4.982 2.775 7.467 6.294 7.467 2.616 0 3.839-1.402 4.395-2.525h.179v2.893c0 2.247-1.491 3.172-3.539 3.172-2.168 0-3.123-1.024-3.56-1.919l-3.242.785c.657 2.138 2.854 3.858 6.742 3.858zm.03-9.088c-2.377 0-3.63-1.849-3.63-4.663 0-2.774 1.233-4.812 3.63-4.812 2.317 0 3.589 1.919 3.589 4.812 0 2.913-1.292 4.663-3.589 4.663z" fill="#FFF4EB"/></svg>