<svg width="184" height="48" fill="none" xmlns="http://www.w3.org/2000/svg"><path d="M16.214 33.429c8.68 0 15.715-7.036 15.715-15.715 0-.983-.09-1.946-.264-2.88a15.801 15.801 0 00-2.88-.263c-8.678 0-15.713 7.036-15.713 15.715 0 .983.09 1.946.263 2.88.933.172 1.896.263 2.88.263z" fill="#FFF4EB"/><path fill-rule="evenodd" clip-rule="evenodd" d="M13.335 33.165C6.03 31.813.5 25.41.5 17.715.5 9.034 7.536 2 16.214 2c7.696 0 14.099 5.531 15.451 12.835a15.801 15.801 0 00-2.88-.264c-8.678 0-15.714 7.036-15.714 15.715 0 .983.09 1.946.264 2.88z" fill="#FFF4EB"/><path fill-rule="evenodd" clip-rule="evenodd" d="M16.214 33.428c8.68 0 15.715-7.035 15.715-15.714 0-.983-.09-1.946-.264-2.88C38.97 16.188 44.5 22.59 44.5 30.287 44.5 38.964 37.465 46 28.786 46c-7.695 0-14.099-5.531-15.451-12.835a15.79 15.79 0 002.88.264z" fill="#FFF4EB"/><path d="M74.728 28.904c-.56 1.81-1.54 3.164-2.94 4.06-1.4.877-3.033 1.316-4.9 1.316-1.83 0-3.416-.383-4.76-1.148-1.325-.765-2.352-1.857-3.08-3.276-.71-1.419-1.064-3.117-1.064-5.096s.364-3.677 1.092-5.096c.728-1.419 1.755-2.51 3.08-3.276 1.325-.765 2.884-1.148 4.676-1.148 1.886 0 3.5.401 4.844 1.204 1.363.784 2.296 1.979 2.8 3.584l-3.5 1.484c-.317-1.12-.802-1.913-1.456-2.38-.653-.485-1.493-.728-2.52-.728-1.53 0-2.753.55-3.668 1.652-.896 1.083-1.344 2.65-1.344 4.704 0 2.035.43 3.603 1.288 4.704.859 1.101 2.1 1.652 3.724 1.652 1.008 0 1.876-.27 2.604-.812.747-.541 1.27-1.363 1.568-2.464l3.556 1.064zm4.833-10.92c-1.586 0-2.38-.681-2.38-2.044 0-1.381.794-2.072 2.38-2.072 1.587 0 2.38.69 2.38 2.072 0 1.363-.793 2.044-2.38 2.044zM81.465 20v14H77.63V20h3.836zm4.067 14V20h3.332l.252 2.744c.354-.952.886-1.69 1.596-2.212.728-.541 1.642-.812 2.744-.812.653 0 1.157.103 1.512.308l-.448 3.22a4.602 4.602 0 00-.7-.14 5.13 5.13 0 00-1.036-.084c-.579 0-1.13.14-1.652.42-.504.261-.924.672-1.26 1.232-.336.541-.504 1.232-.504 2.072V34h-3.836zm17.895-14.28c1.866 0 3.313.401 4.34 1.204 1.045.803 1.736 1.773 2.072 2.912l-3.584 1.288c-.374-1.699-1.298-2.548-2.772-2.548-1.064 0-1.895.373-2.492 1.12-.579.747-.868 1.857-.868 3.332 0 1.493.298 2.604.896 3.332.616.71 1.446 1.064 2.492 1.064 1.624 0 2.594-.83 2.912-2.492l3.472 1.12c-.318 1.25-1.027 2.268-2.128 3.052-1.083.784-2.492 1.176-4.228 1.176-1.456 0-2.735-.29-3.836-.868a6.116 6.116 0 01-2.52-2.492c-.598-1.083-.896-2.39-.896-3.92 0-1.53.298-2.837.896-3.92a6.343 6.343 0 012.52-2.492c1.082-.579 2.324-.868 3.724-.868zm15.832 0c1.4 0 2.642.29 3.724.868a6.111 6.111 0 012.52 2.492c.616 1.083.924 2.39.924 3.92 0 1.53-.308 2.837-.924 3.92a6.112 6.112 0 01-2.52 2.492c-1.082.579-2.324.868-3.724.868-1.418 0-2.669-.29-3.752-.868a6.344 6.344 0 01-2.52-2.492c-.597-1.083-.896-2.39-.896-3.92 0-1.53.299-2.837.896-3.92a6.343 6.343 0 012.52-2.492c1.083-.579 2.334-.868 3.752-.868zm0 2.856c-1.045 0-1.866.373-2.464 1.12-.578.728-.868 1.83-.868 3.304 0 1.475.29 2.585.868 3.332.598.728 1.419 1.092 2.464 1.092 1.027 0 1.83-.364 2.408-1.092.598-.747.896-1.857.896-3.332 0-1.475-.298-2.576-.896-3.304-.578-.747-1.381-1.12-2.408-1.12zm16.762-2.856c1.4 0 2.642.29 3.724.868a6.111 6.111 0 012.52 2.492c.616 1.083.924 2.39.924 3.92 0 1.53-.308 2.837-.924 3.92a6.112 6.112 0 01-2.52 2.492c-1.082.579-2.324.868-3.724.868-1.418 0-2.669-.29-3.752-.868a6.344 6.344 0 01-2.52-2.492c-.597-1.083-.896-2.39-.896-3.92 0-1.53.299-2.837.896-3.92a6.343 6.343 0 012.52-2.492c1.083-.579 2.334-.868 3.752-.868zm0 2.856c-1.045 0-1.866.373-2.464 1.12-.578.728-.868 1.83-.868 3.304 0 1.475.29 2.585.868 3.332.598.728 1.419 1.092 2.464 1.092 1.027 0 1.83-.364 2.408-1.092.598-.747.896-1.857.896-3.332 0-1.475-.298-2.576-.896-3.304-.578-.747-1.381-1.12-2.408-1.12zm14.158-8.708v15.82c0 .653.112 1.11.336 1.372.224.261.597.392 1.12.392.317 0 .579-.019.784-.056a5.33 5.33 0 00.784-.224l-.336 2.52c-.317.187-.719.327-1.204.42a5.98 5.98 0 01-1.4.168c-1.363 0-2.361-.327-2.996-.98-.616-.672-.924-1.736-.924-3.192v-16.24h3.836zm11.657 20.412c-2.202 0-3.966-.635-5.292-1.904-1.325-1.288-1.988-3.08-1.988-5.376 0-1.53.299-2.837.896-3.92a6.164 6.164 0 012.492-2.492c1.083-.579 2.315-.868 3.696-.868 1.419 0 2.623.29 3.612.868a5.656 5.656 0 012.268 2.324c.523.97.784 2.081.784 3.332 0 .373-.009.728-.028 1.064a9.999 9.999 0 01-.084.896h-9.884c.15 1.083.523 1.895 1.12 2.436.616.523 1.41.784 2.38.784.822 0 1.484-.159 1.988-.476a3.22 3.22 0 001.176-1.316l3.052 1.176c-.448 1.101-1.232 1.96-2.352 2.576-1.12.597-2.398.896-3.836.896zm-.224-11.732c-1.81 0-2.902.999-3.276 2.996h6.3c-.112-.97-.429-1.708-.952-2.212-.504-.523-1.194-.784-2.072-.784zm15.543 11.732c-1.419 0-2.716-.252-3.892-.756-1.157-.504-2.1-1.213-2.828-2.128l2.212-2.24a5.266 5.266 0 001.792 1.652c.747.43 1.633.644 2.66.644.728 0 1.307-.103 1.736-.308.448-.224.672-.57.672-1.036 0-.299-.102-.55-.308-.756-.205-.224-.616-.401-1.232-.532l-2.464-.504c-1.624-.336-2.781-.84-3.472-1.512-.672-.69-1.008-1.577-1.008-2.66 0-.765.224-1.484.672-2.156.467-.672 1.157-1.213 2.072-1.624.915-.43 2.053-.644 3.416-.644 2.837 0 4.872.868 6.104 2.604l-2.296 2.24a4.008 4.008 0 00-1.624-1.484 4.28 4.28 0 00-2.072-.532c-1.643 0-2.464.457-2.464 1.372 0 .299.131.56.392.784.261.205.737.383 1.428.532l2.856.588c1.381.28 2.371.756 2.968 1.428.597.653.896 1.447.896 2.38 0 1.344-.541 2.455-1.624 3.332-1.064.877-2.595 1.316-4.592 1.316z" fill="#FFF4EB"/></svg>