<svg width="194" height="48" viewBox="0 0 129 32" fill="none" xmlns="http://www.w3.org/2000/svg"><path d="M22.383 16c-2.348 2.648-5.76 4.314-9.559 4.314-3.798 0-7.21-1.666-9.559-4.314 2.349-2.648 5.761-4.314 9.56-4.314 3.797 0 7.21 1.666 9.558 4.314z" fill="#fff"/><path fill-rule="evenodd" clip-rule="evenodd" d="M0 24.628c0-7.148 5.742-12.942 12.824-12.942-3.798 0-7.21 1.666-9.559 4.314 2.349 2.648 5.761 4.314 9.56 4.314 3.797 0 7.21-1.666 9.558-4.314a12.96 12.96 0 013.265 8.628v4.888c0 .636-.51 1.15-1.14 1.15H1.14c-.63 0-1.14-.514-1.14-1.15v-4.888zM22.383 16z" fill="#fff"/><path fill-rule="evenodd" clip-rule="evenodd" d="M8.014 19.373A12.854 12.854 0 013.265 16c2.349-2.648 5.761-4.314 9.56-4.314 3.797 0 7.21 1.666 9.558 4.314a12.96 12.96 0 003.265-8.627v-4.89c0-.635-.51-1.15-1.14-1.15H1.14c-.63 0-1.14.515-1.14 1.15v4.89c0 5.43 3.315 10.08 8.014 12z" fill="#fff"/><path d="M45.68 9.637v13.03h-2.59v-5.544h-5.531v5.544h-2.59V9.637h2.59v5.358h5.53V9.637h2.59zm7.099 13.198c-.987 0-1.874-.218-2.664-.654a4.88 4.88 0 01-1.868-1.885c-.444-.809-.666-1.742-.666-2.8 0-1.058.228-1.991.684-2.8a4.84 4.84 0 011.906-1.867c.801-.448 1.696-.672 2.682-.672.987 0 1.88.224 2.682.672a4.716 4.716 0 011.887 1.867c.469.809.703 1.742.703 2.8 0 1.058-.24 1.991-.721 2.8a4.935 4.935 0 01-1.924 1.885c-.802.436-1.702.654-2.701.654zm0-2.278a2.68 2.68 0 001.313-.336c.42-.236.753-.585 1-1.045.246-.46.37-1.02.37-1.68 0-.983-.26-1.736-.778-2.259a2.469 2.469 0 00-1.868-.802 2.47 2.47 0 00-1.868.802c-.493.523-.74 1.276-.74 2.259 0 .983.24 1.742.721 2.277.493.523 1.11.784 1.85.784zM69.7 12.325v10.342h-2.61V21.36c-.332.448-.77.803-1.313 1.064a4.04 4.04 0 01-1.738.373c-.802 0-1.511-.168-2.128-.504a3.736 3.736 0 01-1.46-1.512c-.346-.672-.519-1.468-.519-2.389v-6.067h2.59v5.694c0 .821.203 1.456.61 1.904.407.435.962.653 1.665.653.715 0 1.276-.218 1.683-.653.407-.448.61-1.083.61-1.904v-5.694h2.61zm5.144 1.605a3.68 3.68 0 011.295-1.287c.542-.311 1.159-.467 1.85-.467v2.744h-.685c-.814 0-1.43.193-1.85.579-.407.385-.61 1.057-.61 2.016v5.152h-2.59V12.325h2.59v1.606zm8.903-1.773c.765 0 1.437.156 2.016.467.58.299 1.036.69 1.37 1.176v-1.475h2.607v10.416c0 .959-.19 1.811-.573 2.558a4.209 4.209 0 01-1.72 1.792c-.765.448-1.69.672-2.775.672-1.455 0-2.651-.343-3.589-1.027-.925-.684-1.449-1.618-1.572-2.8h2.571c.136.473.426.846.87 1.12.456.286 1.005.43 1.646.43.752 0 1.363-.23 1.831-.691.469-.448.703-1.133.703-2.054v-1.605c-.333.485-.795.89-1.387 1.213-.58.324-1.246.486-1.998.486a4.372 4.372 0 01-2.368-.672c-.715-.448-1.282-1.077-1.702-1.886-.407-.821-.61-1.76-.61-2.818 0-1.046.204-1.973.61-2.782.42-.809.98-1.43 1.684-1.866a4.498 4.498 0 012.386-.654zm3.385 5.339c0-.635-.123-1.176-.37-1.624a2.544 2.544 0 00-.999-1.045 2.6 2.6 0 00-1.35-.374 2.61 2.61 0 00-1.332.355c-.407.236-.74.585-.999 1.045-.246.448-.37.983-.37 1.606 0 .622.123 1.17.37 1.642.26.46.592.815.999 1.064.42.25.863.374 1.332.374.48 0 .931-.119 1.35-.355.42-.249.752-.597 1-1.045.246-.46.37-1.008.37-1.643zm7.728-8.643v13.814h-2.59V8.853h2.59zm1.892 8.606c0-1.046.204-1.973.61-2.782.42-.809.98-1.43 1.684-1.866a4.497 4.497 0 012.386-.654c.765 0 1.431.156 1.998.467.579.311 1.042.703 1.387 1.176v-1.475h2.608v10.342h-2.608v-1.512c-.333.485-.795.89-1.387 1.213-.58.311-1.252.467-2.016.467a4.372 4.372 0 01-2.368-.672c-.703-.448-1.264-1.077-1.684-1.886-.406-.821-.61-1.76-.61-2.818zm8.065.037c0-.635-.123-1.176-.37-1.624a2.535 2.535 0 00-.999-1.045 2.598 2.598 0 00-1.35-.374 2.61 2.61 0 00-1.332.355c-.407.236-.74.585-.999 1.045-.246.448-.37.983-.37 1.606 0 .622.124 1.17.37 1.642.259.46.592.815.999 1.064.419.25.863.374 1.332.374.481 0 .931-.119 1.35-.355.42-.249.753-.597.999-1.045.247-.46.37-1.008.37-1.643zm9.059 5.339c-.838 0-1.591-.15-2.256-.448-.666-.311-1.197-.728-1.591-1.251a3.195 3.195 0 01-.629-1.736h2.608c.049.398.24.728.573.99.346.26.771.391 1.277.391.493 0 .875-.1 1.147-.298.283-.2.425-.455.425-.766 0-.336-.173-.585-.518-.746-.333-.175-.869-.361-1.609-.56-.765-.187-1.394-.38-1.887-.579-.481-.2-.9-.504-1.258-.915-.345-.41-.518-.964-.518-1.661 0-.572.161-1.095.481-1.568.333-.473.802-.846 1.406-1.12.617-.274 1.338-.41 2.164-.41 1.221 0 2.195.31 2.923.933.728.61 1.128 1.437 1.202 2.482h-2.478c-.037-.41-.21-.734-.518-.97-.296-.25-.697-.374-1.203-.374-.468 0-.832.087-1.091.262a.84.84 0 00-.37.728c0 .348.173.616.518.802.345.175.882.355 1.609.542.74.186 1.351.38 1.832.578.48.2.894.51 1.239.934.358.41.543.958.555 1.642 0 .598-.167 1.133-.5 1.606-.32.473-.789.846-1.405 1.12-.605.261-1.314.392-2.128.392zm10.08 0c-.838 0-1.591-.15-2.257-.448-.665-.311-1.196-.728-1.59-1.251a3.195 3.195 0 01-.629-1.736h2.608c.049.398.24.728.573.99.346.26.771.391 1.277.391.493 0 .875-.1 1.147-.298.283-.2.425-.455.425-.766 0-.336-.173-.585-.518-.746-.333-.175-.869-.361-1.609-.56-.765-.187-1.394-.38-1.887-.579-.481-.2-.9-.504-1.258-.915-.345-.41-.518-.964-.518-1.661 0-.572.161-1.095.481-1.568.333-.473.802-.846 1.406-1.12.617-.274 1.338-.41 2.164-.41 1.221 0 2.195.31 2.923.933.728.61 1.128 1.437 1.202 2.482h-2.478c-.037-.41-.21-.734-.518-.97-.296-.25-.697-.374-1.203-.374-.468 0-.832.087-1.091.262a.84.84 0 00-.37.728c0 .348.173.616.518.802.345.175.882.355 1.609.542.74.186 1.351.38 1.831.578.481.2.895.51 1.24.934.357.41.542.958.555 1.642 0 .598-.167 1.133-.5 1.606-.32.473-.789.846-1.405 1.12-.605.261-1.314.392-2.128.392z" fill="#fff"/></svg>