<svg width="187" height="48" fill="none" xmlns="http://www.w3.org/2000/svg"><path fill-rule="evenodd" clip-rule="evenodd" d="M22 36.467c6.885 0 12.467-5.582 12.467-12.467 0-6.885-5.582-12.467-12.467-12.467-6.885 0-12.467 5.582-12.467 12.467 0 6.885 5.582 12.467 12.467 12.467zM22 46c12.15 0 22-9.85 22-22S34.15 2 22 2 0 11.85 0 24s9.85 22 22 22z" fill="#FFF4EB"/><path d="M22.252 24.482a5.867 5.867 0 018.296 0L41.956 35.89a5.867 5.867 0 11-8.297 8.296L22.253 32.778a5.867 5.867 0 010-8.296z" fill="#FFF4EB"/><path d="M25.455 35.982l7.245 7.245a22.106 22.106 0 008.36-8.233l-7.186-7.186a12.494 12.494 0 01-8.42 8.174zm54.065.118a6.24 6.24 0 01-2.324 1.792c-.896.41-1.885.616-2.968.616-1.456 0-2.772-.317-3.948-.952-1.176-.616-2.52-1.717-4.032-3.304-1.773-.224-3.36-.793-4.76-1.708a9.81 9.81 0 01-3.248-3.528c-.765-1.456-1.148-3.061-1.148-4.816 0-1.923.457-3.65 1.372-5.18.933-1.55 2.212-2.763 3.836-3.64 1.643-.877 3.481-1.316 5.516-1.316s3.864.439 5.488 1.316c1.624.877 2.903 2.09 3.836 3.64.933 1.53 1.4 3.257 1.4 5.18 0 2.277-.644 4.275-1.932 5.992-1.27 1.717-2.959 2.912-5.068 3.584.467.485.915.83 1.344 1.036a3.15 3.15 0 001.428.336c1.213 0 2.277-.485 3.192-1.456L79.52 36.1zM61.684 24.2c0 1.213.261 2.296.784 3.248a5.928 5.928 0 002.212 2.24c.933.523 1.979.784 3.136.784s2.203-.261 3.136-.784a5.726 5.726 0 002.184-2.24c.541-.952.812-2.035.812-3.248s-.27-2.296-.812-3.248a5.534 5.534 0 00-2.184-2.212c-.933-.541-1.979-.812-3.136-.812s-2.203.27-3.136.812a5.726 5.726 0 00-2.212 2.212c-.523.952-.784 2.035-.784 3.248zm35.133-5.264V34h-4.144v-1.792a5.945 5.945 0 01-2.072 1.512 6.675 6.675 0 01-2.604.504c-1.979 0-3.547-.57-4.704-1.708-1.157-1.139-1.736-2.828-1.736-5.068v-8.512h4.368v7.868c0 2.427 1.017 3.64 3.052 3.64 1.045 0 1.885-.336 2.52-1.008.635-.69.952-1.708.952-3.052v-7.448h4.368zm11.215 15.288c-1.587 0-3.015-.327-4.284-.98-1.251-.672-2.231-1.596-2.94-2.772-.71-1.176-1.064-2.51-1.064-4.004 0-1.493.354-2.828 1.064-4.004.709-1.176 1.689-2.09 2.94-2.744 1.269-.672 2.697-1.008 4.284-1.008 1.586 0 3.005.336 4.256 1.008a7.323 7.323 0 012.94 2.744c.709 1.176 1.064 2.51 1.064 4.004 0 1.493-.355 2.828-1.064 4.004-.71 1.176-1.69 2.1-2.94 2.772-1.251.653-2.67.98-4.256.98zm0-3.584c1.12 0 2.034-.373 2.744-1.12.728-.765 1.092-1.783 1.092-3.052 0-1.27-.364-2.277-1.092-3.024-.71-.765-1.624-1.148-2.744-1.148s-2.044.383-2.772 1.148c-.728.747-1.092 1.755-1.092 3.024 0 1.27.364 2.287 1.092 3.052.728.747 1.652 1.12 2.772 1.12zm20.895 2.632c-.429.317-.961.56-1.596.728a8.296 8.296 0 01-1.96.224c-1.792 0-3.182-.457-4.172-1.372-.97-.915-1.456-2.259-1.456-4.032v-6.188h-2.324v-3.36h2.324v-3.668h4.368v3.668h3.752v3.36h-3.752v6.132c0 .635.159 1.13.476 1.484.336.336.803.504 1.4.504.691 0 1.279-.187 1.764-.56l1.176 3.08zm2.452-14.336h4.368V34h-4.368V18.936zm2.184-2.1c-.802 0-1.456-.233-1.96-.7a2.27 2.27 0 01-.756-1.736c0-.69.252-1.27.756-1.736.504-.467 1.158-.7 1.96-.7.803 0 1.456.224 1.96.672.504.448.756 1.008.756 1.68 0 .728-.252 1.335-.756 1.82-.504.467-1.157.7-1.96.7zm20.994 9.688c0 .056-.028.448-.084 1.176h-11.396c.206.933.691 1.67 1.456 2.212.766.541 1.718.812 2.856.812.784 0 1.475-.112 2.072-.336a5.197 5.197 0 001.708-1.12l2.324 2.52c-1.418 1.624-3.49 2.436-6.216 2.436-1.698 0-3.201-.327-4.508-.98-1.306-.672-2.314-1.596-3.024-2.772-.709-1.176-1.064-2.51-1.064-4.004 0-1.475.346-2.8 1.036-3.976a7.357 7.357 0 012.884-2.772c1.232-.672 2.604-1.008 4.116-1.008 1.475 0 2.81.317 4.004.952a6.832 6.832 0 012.8 2.744c.691 1.176 1.036 2.548 1.036 4.116zm-7.812-4.508c-.989 0-1.82.28-2.492.84-.672.56-1.082 1.325-1.232 2.296h7.42c-.149-.952-.56-1.708-1.232-2.268-.672-.579-1.493-.868-2.464-.868zm19.876-3.304c1.867 0 3.37.56 4.508 1.68 1.158 1.12 1.736 2.781 1.736 4.984V34h-4.368v-7.952c0-1.195-.261-2.081-.784-2.66-.522-.597-1.278-.896-2.268-.896-1.101 0-1.978.345-2.632 1.036-.653.672-.98 1.68-.98 3.024V34h-4.368V18.936h4.172V20.7a5.663 5.663 0 012.156-1.456c.859-.355 1.802-.532 2.828-.532zm19.92 14.56c-.43.317-.962.56-1.596.728-.616.15-1.27.224-1.96.224-1.792 0-3.183-.457-4.172-1.372-.971-.915-1.456-2.259-1.456-4.032v-6.188h-2.324v-3.36h2.324v-3.668h4.368v3.668h3.752v3.36h-3.752v6.132c0 .635.158 1.13.476 1.484.336.336.802.504 1.4.504.69 0 1.278-.187 1.764-.56l1.176 3.08z" fill="#FFF4EB"/></svg>