<svg width="362" height="80" fill="none" xmlns="http://www.w3.org/2000/svg"><path d="M40 32c0-15.085 0-22.627 4.686-27.314C49.373 0 56.916 0 72 0h232.821c1.095 0 1.642 0 2.105.027 8.108.47 14.577 6.94 15.047 15.047.027.463.027 1.01.027 2.105 0 .686 0 1.028.013 1.347a15.998 15.998 0 007.916 13.177c.276.161.578.322 1.183.644l4.073 2.166c3.178 1.69 4.766 2.536 5.34 3.63a4 4 0 010 3.714c-.574 1.094-2.162 1.94-5.34 3.63l-4.073 2.166c-.605.322-.907.483-1.183.644a15.999 15.999 0 00-7.916 13.177c-.013.319-.013.662-.013 1.347 0 1.095 0 1.642-.027 2.105-.47 8.108-6.939 14.577-15.047 15.047-.463.027-1.01.027-2.105.027H72.001c-15.086 0-22.628 0-27.315-4.686C40 70.627 40 63.084 40 48V32z" fill="#DB9F6A"/><path d="M30.888 47.653l-4.073-2.166c-3.178-1.69-4.766-2.536-5.34-3.63a4 4 0 010-3.714c.574-1.094 2.162-1.94 5.34-3.63l4.073-2.166c.605-.322.908-.483 1.183-.644a16 16 0 007.916-13.177c.013-.319.013-.662.013-1.347 0-1.095 0-1.642.027-2.105.47-8.108 6.94-14.577 15.047-15.047C55.537 0 56.084 0 57.18 0H94.5c15.085 0 22.627 0 27.314 4.686C126.5 9.373 126.5 16.916 126.5 32v16c0 15.085 0 22.627-4.686 27.314C117.127 80 109.585 80 94.5 80H57.18c-1.096 0-1.643 0-2.106-.027-8.108-.47-14.577-6.94-15.047-15.047C40 64.463 40 63.916 40 62.82c0-.685 0-1.028-.013-1.347a16 16 0 00-7.916-13.177c-.275-.161-.578-.322-1.183-.644z" fill="#DB9F6A"/><path d="M261.5 0c-2.8 57.6-52.167 77.333-76.5 80h123V0h-46.5z" fill="url(#paint0_linear_281_81)" fill-opacity=".2"/><path d="M131.5 0C128.7 57.6 79.333 77.333 55 80h123V0h-46.5z" fill="url(#paint1_linear_281_81)" fill-opacity=".2"/><path d="M353.086 34.414a2 2 0 012.828 0l4.672 4.672a2 2 0 010 2.828l-4.672 4.672a2 2 0 01-2.828 0l-4.672-4.672a2 2 0 010-2.828l4.672-4.672zm-347 0a2 2 0 012.828 0l4.672 4.672a2 2 0 010 2.828l-4.672 4.672a2 2 0 01-2.828 0l-4.672-4.672a2 2 0 010-2.828l4.672-4.672z" fill="#DB9F6A"/><defs><linearGradient id="paint0_linear_281_81" x1="220" y1="24" x2="261.5" y2="60" gradientUnits="userSpaceOnUse"><stop stop-color="#342416"/><stop offset="1" stop-color="#342416" stop-opacity="0"/></linearGradient><linearGradient id="paint1_linear_281_81" x1="90" y1="24" x2="131.5" y2="60" gradientUnits="userSpaceOnUse"><stop stop-color="#342416"/><stop offset="1" stop-color="#342416" stop-opacity="0"/></linearGradient></defs></svg>